# AST/ASF file generated using VICON BodyLanguage
# -----------------------------------------------
:version 1.10
:name VICON
:units
  mass 1.0
  length 0.45
  angle deg
:documentation
   .ast/.asf automatically generated from VICON data using
   VICON BodyBuilder and BodyLanguage model FoxedUp or BRILLIANT.MOD
:root
   order TX TY TZ RX RY RZ
   axis XYZ
   position 0 0 0  
   orientation 0 0 0 
:bonedata
  begin
     id 1 
     name lhipjoint
     direction 0.561001 -0.76473 0.316963 
     length 2.4722 
     axis 0 0 0  XYZ
  end
  begin
     id 2 
     name lfemur
     direction 0.34202 -0.939693 0  
     length 7.59403  
     axis 0 0 20  XYZ
    dof rx ry rz
    limits (-160.0 20.0)
           (-70.0 70.0)
           (-60.0 70.0)
  end
  begin
     id 3 
     name ltibia
     direction 0.34202 -0.939693 0   
     length 7.89655   
     axis 0 0 20   XYZ
    dof rx
    limits (-10.0 170.0)
  end
  begin
     id 4 
     name lfoot
     direction 0.061296 -0.168409 0.98381   
     length 2.73287   
     axis -90 7.62852e-016 20   XYZ
    dof rx rz
    limits (-45.0 90.0)
           (-70.0 20.0)
  end
  begin
     id 5 
     name ltoes
     direction 1.53547e-011 -4.21984e-011 1   
     length 1.37057   
     axis -90 7.62852e-016 20   XYZ
    dof rx
    limits (-90.0 20.0)
  end
  begin
     id 6 
     name rhipjoint
     direction -0.559611 -0.765599 0.317323   
     length 2.46939  
     axis 0 0 0  XYZ 
  end
  begin
     id 7 
     name rfemur
     direction -0.34202 -0.939693 0   
     length 7.53712   
     axis 0 0 -20   XYZ
    dof rx ry rz
    limits (-160.0 20.0)
           (-70.0 70.0)
           (-70.0 60.0)
  end
  begin
     id 8 
     name rtibia
     direction -0.34202 -0.939693 0   
     length 8.12549   
     axis 0 0 -20   XYZ
    dof rx
    limits (-10.0 170.0)
 end
 begin
     id 9 
     name rfoot
     direction -0.066984 -0.184037 0.980634   
     length 2.67541  
     axis -90 -7.62852e-016 -20   XYZ
    dof rx rz
    limits (-45.0 90.0)
           (-20.0 70.0)
  end
  begin
     id 10 
     name rtoes
     direction -1.53549e-011 -4.21786e-011 1   
     length 1.34085   
     axis -90 -7.62852e-016 -20   XYZ
    dof rx
    limits (-90.0 20.0)
  end
  begin
     id 11 
     name lowerback
     direction -0.0522728 0.992594 -0.109658   
     length 2.05633   
     axis 0 0 0   XYZ
    dof rx ry rz
    limits (-20.0 45.0)
           (-30.0 30.0)
           (-30.0 30.0)
  end
  begin
     id 12 
     name upperback
     direction 0.00589338 0.999977 0.00335704   
     length 2.05845   
     axis 0 0 0   XYZ
    dof rx ry rz
    limits (-20.0 45.0)
           (-30.0 30.0)
           (-30.0 30.0)
  end
  begin
     id 13 
     name thorax
     direction 0.0292928 0.998059 0.0549487   
     length 2.09281   
     axis 0 0 0   XYZ
    dof rx ry rz
    limits (-20.0 45.0)
           (-30.0 30.0)
           (-30.0 30.0)
  end
  begin
     id 14 
     name lowerneck
     direction 0.0356368 0.980775 0.191858   
     length 1.84767   
     axis 0 0 0   XYZ
    dof rx ry rz
    limits (-20.0 45.0)
           (-30.0 30.0)
           (-30.0 30.0)
  end
  begin
     id 15 
     name upperneck
     direction -0.0227605 0.98931 -0.14404   
     length 1.89582   
     axis 0 0 0   XYZ
    dof rx ry rz
    limits (-20.0 45.0)
           (-30.0 30.0)
           (-30.0 30.0)
  end
  begin
     id 16
     name head
     direction -0.00932985 0.997511 -0.0698904  
     length 1.90213  
     axis 0 0 0   XYZ
    dof rx ry rz
    limits (-20.0 45.0)
           (-30.0 30.0)
           (-30.0 30.0)
  end
  begin
     id 17 
     name lclavicle
     direction 0.873442 0.479511 0.0846686  
     length 3.41193  
     axis 0 0 0   XYZ
    dof ry rz
    limits (-20.0 10.0)
           (0.0 20.0)
  end
  begin
     id 18 
     name lhumerus
     direction 1 -4.4897e-011 -5.62117e-018   
     length 5.59864   
     axis 180 -30 -90   XYZ
    dof rx ry rz
    limits (-60.0 90.0)
           (-90.0 90.0)
           (-90.0 90.0)
  end
  begin
     id 19
     name lradius
     direction 1 -4.48966e-011 -6.26295e-027   
     length 3.59542   
     axis 180 -30 -90   XYZ
    dof rx
    limits (-10.0 170.0)
  end
  begin
     id 20
     name lwrist
     direction 1 -4.48947e-011 -1.74096e-026   
     length 1.79771   
     axis 1.04567e-014 90 90   XYZ
    dof ry
    limits (-180.0 0.0)
 end
  begin
     id 21 
     name lhand
     direction 1 -4.49085e-011 -3.48469e-026   
     length 0.572014   
     axis 2.22196e-014 90 90   XYZ
    dof rx rz
    limits (-90.0 90.0)
           (-45.0 45.0)
  end
  begin
     id 22 
     name lfingers
     direction 1 -4.48884e-011 -6.96135e-026   
     length 0.461173   
     axis 4.44383e-014 90 90   XYZ
    dof rx
    limits (0.0 90.0)
  end
  begin
     id 23
     name lthumb
     direction 0.707107 -6.34976e-011 0.707107   
     length 0.662154   
     axis -90 45 -5.4397e-014   XYZ
    dof rx rz
    limits (-45.0 45.0)
           (-45.0 45.0)
  end
  begin
     id 24 
     name rclavicle
     direction -0.890242 0.443271 0.104786   
     length 3.46753  
     axis 0 0 0   XYZ 
    dof ry rz
    limits (-10.0 20.0)
           (-20.0 0.0)
  end
  begin
     id 25 
     name rhumerus
     direction -1 -4.48963e-011 -5.41723e-018  
     length 5.8094   
     axis 180 30 90   XYZ
    dof rx ry rz
    limits (-90.0 60.0)
           (-90.0 90.0)
           (-90.0 90.0)
  end
  begin
     id 26 
     name rradius
     direction -1 -4.48958e-011 -6.51059e-027   
     length 3.66953   
     axis 180 30 90   XYZ
    dof rx
    limits (-10.0 170.0)
  end
  begin
     id 27 
     name rwrist
     direction -1 -4.48975e-011 -1.74124e-026   
     length 1.83476   
     axis 1.04567e-014 -90 -90   XYZ
    dof ry
    limits (-180.0 0.0)
  end
  begin
     id 28
     name rhand
     direction -1 -4.49013e-011 -3.48326e-026   
     length 0.57843   
     axis 2.22196e-014 -90 -90   XYZ
    dof rx rz
    limits (-90.0 90.0)
           (-45.0 45.0)
  end
  begin
     id 29
     name rfingers
     direction -1 -4.49023e-011 -6.9669e-026   
     length 0.466345   
     axis 4.44383e-014 -90 -90   XYZ
    dof rx
    limits (0.0 90.0)
  end
  begin
     id 30
     name rthumb
     direction -0.707107 -6.34926e-011 0.707107   
     length 0.669581   
     axis -90 -45 5.4397e-014   XYZ
    dof rx rz
    limits (-45.0 45.0)
           (-45.0 45.0)
  end
:hierarchy
  begin
    root lhipjoint rhipjoint lowerback
    lhipjoint lfemur
    lfemur ltibia
    ltibia lfoot
    lfoot ltoes
    rhipjoint rfemur
    rfemur rtibia
    rtibia rfoot
    rfoot rtoes
    lowerback upperback
    upperback thorax
    thorax lowerneck lclavicle rclavicle
    lowerneck upperneck
    upperneck head
    lclavicle lhumerus
    lhumerus lradius
    lradius lwrist
    lwrist lhand lthumb
    lhand lfingers
    rclavicle rhumerus
    rhumerus rradius
    rradius rwrist
    rwrist rhand rthumb
    rhand rfingers
  end

#!OML:ASF H:\SkateBoarding\Project 1\Capture day 1\Session 1\Skater.ASF
:FULLY-SPECIFIED
:DEGREES
96
root 6.60568 17.4928 8.72526 177.713 5.45008 177.039
lowerback 13.8204 1.16071 -6.61865
upperback 1.72986 0.752922 -0.438827
thorax -5.99035 0.618584 3.12496
lowerneck -26.307 2.97662 4.99674
upperneck 15.3784 2.83488 -2.83014
head 9.22636 1.29707 -1.3597
rclavicle 1.08213e-014 5.76476e-015
rhumerus 31.4145 4.71216 -59.8501
rradius 82.6089
rwrist -8.95671
rhand 15.0686 -40.6236
rfingers 7.12502
rthumb 39.9162 -65.8749
lclavicle 1.08213e-014 5.76476e-015
lhumerus 30.6462 1.90111 58.8728
lradius 82.3465
lwrist 8.94367
lhand 11.9053 49.424
lfingers 7.12502
lthumb 36.9311 75.5062
rfemur -23.366 -7.41265 8.98309
rtibia 49.735
rfoot -15.2918 15.5995
rtoes -11.1674
lfemur -20.4922 8.77927 -13.3738
ltibia 46.0785
lfoot -18.6166 -10.0708
ltoes -10.9827
97
root 6.60472 17.4906 8.72923 177.754 5.46303 177.03
lowerback 13.8546 1.16791 -6.6079
upperback 1.69474 0.757102 -0.446404
thorax -6.04722 0.621814 3.10946
lowerneck -26.4515 2.96373 4.85712
upperneck 15.5058 2.82397 -2.65275
head 9.28954 1.30367 -1.27609
rclavicle -4.32357e-015 1.46107e-014
rhumerus 31.4128 4.7138 -59.8742
rradius 82.5604
rwrist -9.01559
rhand 15.0956 -40.651
rfingers 7.12502
rthumb 39.9416 -65.8947
lclavicle -4.32357e-015 1.46107e-014
lhumerus 30.6307 1.88214 58.8463
lradius 82.3048
lwrist 8.96483
lhand 11.9099 49.4402
lfingers 7.12502
lthumb 36.9355 75.5213
rfemur -23.4448 -7.40906 8.97978
rtibia 49.7524
rfoot -15.2815 15.5855
rtoes -11.1867
lfemur -20.5625 8.7856 -13.3901
ltibia 46.0916
lfoot -18.6035 -10.0653
ltoes -10.9141
98
root 6.60543 17.4901 8.73035 177.753 5.47257 177.115
lowerback 13.8861 1.15976 -6.51672
upperback 1.68579 0.756893 -0.427872
thorax -6.07349 0.620088 3.07743
lowerneck -26.4558 2.95948 4.8497
upperneck 15.4984 2.80965 -2.60197
head 9.28613 1.30264 -1.25922
rclavicle -4.37326e-015 1.51076e-014
rhumerus 31.405 4.73087 -59.9166
rradius 82.5432
rwrist -9.08396
rhand 15.0876 -40.6936
rfingers 7.12502
rthumb 39.9341 -65.9395
lclavicle -4.37326e-015 1.51076e-014
lhumerus 30.6117 1.88241 58.8029
lradius 82.2774
lwrist 9.00794
lhand 11.928 49.4738
lfingers 7.12502
lthumb 36.9526 75.5505
rfemur -23.4427 -7.39133 9.08097
rtibia 49.7558
rfoot -15.3064 15.5688
rtoes -11.2369
lfemur -20.5631 8.81259 -13.2887
ltibia 46.1076
lfoot -18.591 -10.0767
ltoes -10.9245
99
root 6.60526 17.491 8.72787 177.733 5.43135 177.01
lowerback 13.8536 1.14414 -6.61206
upperback 1.7027 0.725832 -0.456964
thorax -6.03471 0.606422 3.10661
lowerneck -26.3449 2.95242 4.97797
upperneck 15.3645 2.78726 -2.73911
head 9.22394 1.28443 -1.33181
rclavicle 8.02593e-015 2.46493e-014
rhumerus 31.4231 4.74444 -59.95
rradius 82.5178
rwrist -9.10546
rhand 15.1276 -40.7036
rfingers 7.12502
rthumb 39.9717 -65.9382
lclavicle 8.02593e-015 2.46493e-014
lhumerus 30.6094 1.90296 58.7668
lradius 82.2517
lwrist 9.04493
lhand 11.9866 49.4954
lfingers 7.12502
lthumb 37.0081 75.5578
rfemur -23.4114 -7.4603 8.94749
rtibia 49.7647
rfoot -15.2692 15.6182
rtoes -11.2051
lfemur -20.5413 8.78202 -13.4116
ltibia 46.1107
lfoot -18.6121 -10.1045
ltoes -10.9063
100
root 6.60749 17.4907 8.72953 177.734 5.45092 177.067
lowerback 13.8716 1.15394 -6.57898
upperback 1.70426 0.743286 -0.43515
thorax -6.04478 0.614447 3.10767
lowerneck -26.4874 2.93442 4.80881
upperneck 15.4786 2.77101 -2.51889
head 9.28085 1.29199 -1.22922
rclavicle -3.13086e-015 -4.47266e-015
rhumerus 31.4237 4.73959 -59.9499
rradius 82.5182
rwrist -9.11821
rhand 15.1112 -40.6916
rfingers 7.12502
rthumb 39.9563 -65.9308
lclavicle -3.13086e-015 -4.47266e-015
lhumerus 30.6319 1.90445 58.7537
lradius 82.2173
lwrist 9.05212
lhand 11.9699 49.4948
lfingers 7.12502
lthumb 36.9923 75.5612
rfemur -23.4207 -7.4064 9.02787
rtibia 49.7649
rfoot -15.3132 15.5837
rtoes -11.2726
lfemur -20.5557 8.81797 -13.3348
ltibia 46.1231
lfoot -18.5995 -10.1077
ltoes -10.9458
101
root 6.60748 17.4899 8.73152 177.747 5.43857 177.081
lowerback 13.8967 1.13892 -6.55561
upperback 1.68843 0.723215 -0.433611
thorax -6.07338 0.604816 3.09964
lowerneck -26.456 2.92558 4.81614
upperneck 15.4553 2.75632 -2.51255
head 9.2669 1.28655 -1.23061
rclavicle 6.17475e-015 -1.48095e-014
rhumerus 31.425 4.77399 -59.9765
rradius 82.5036
rwrist -9.08706
rhand 15.154 -40.6886
rfingers 7.12502
rthumb 39.9966 -65.9157
lclavicle 6.17475e-015 -1.48095e-014
lhumerus 30.6307 1.92908 58.7316
lradius 82.1573
lwrist 9.05481
lhand 11.9162 49.4574
lfingers 7.12502
lthumb 36.9414 75.5369
rfemur -23.4419 -7.42196 9.0454
rtibia 49.7707
rfoot -15.3158 15.5756
rtoes -11.3223
lfemur -20.5779 8.82137 -13.3224
ltibia 46.1247
lfoot -18.5624 -10.1047
ltoes -10.9692
102
root 6.6094 17.4891 8.73334 177.76 5.4722 177.145
lowerback 13.9194 1.15397 -6.50981
upperback 1.67422 0.747114 -0.414338
thorax -6.10349 0.616042 3.08943
lowerneck -26.4505 2.90695 4.79278
upperneck 15.4494 2.73081 -2.47079
head 9.2619 1.27828 -1.21618
rclavicle 5.80203e-015 8.94531e-015
rhumerus 31.4024 4.77374 -59.9751
rradius 82.5074
rwrist -9.07471
rhand 15.1514 -40.6797
rfingers 7.12502
rthumb 39.9941 -65.9075
lclavicle 5.80203e-015 8.94531e-015
lhumerus 30.6409 1.91916 58.7317
lradius 82.1378
lwrist 9.04737
lhand 11.9399 49.5142
lfingers 7.12502
lthumb 36.9639 75.588
rfemur -23.4738 -7.36279 9.13507
rtibia 49.7759
rfoot -15.351 15.5363
rtoes -11.325
lfemur -20.6017 8.85998 -13.2383
ltibia 46.1414
lfoot -18.5487 -10.1101
ltoes -10.9587
